<?xml version="1.0" standalone="no"?><!DOCTYPE svg PUBLIC "-//W3C//DTD SVG 1.1//EN" "http://www.w3.org/Graphics/SVG/1.1/DTD/svg11.dtd"><svg width="16" height="16" viewBox="0 0 16 16" version="1.1" xmlns="http://www.w3.org/2000/svg" xmlns:xlink="http://www.w3.org/1999/xlink"><defs><style type="text/css"><![CDATA[
@font-face { font-family: ifont; src: url("//at.alicdn.com/t/font_1442373896_4754455.eot?#iefix") format("embedded-opentype"), url("//at.alicdn.com/t/font_1442373896_4754455.woff") format("woff"), url("//at.alicdn.com/t/font_1442373896_4754455.ttf") format("truetype"), url("//at.alicdn.com/t/font_1442373896_4754455.svg#ifont") format("svg"); }

]]></style></defs><g class="transform-group"><g transform="scale(0.015625, 0.015625)"><path d="M549.802978 447.951265c-21.543665-21.034059-56.478316-21.034059-78.026074 0l-393.46635 383.228171c-21.545712 21.036106-21.545712 55.141878 0 76.179007 21.545712 21.037129 56.480362 21.037129 78.026074 0l354.452801-345.229742 354.452801 345.229742c21.548782 21.037129 56.482409 21.037129 78.028121 0 21.546735-21.036106 21.546735-55.141878 0-76.179007L549.802978 447.951265zM156.336628 575.051011l354.452801-345.229742 354.452801 345.229742c21.548782 21.037129 56.482409 21.037129 78.028121 0 21.546735-21.036106 21.546735-55.141878 0-76.179007l-393.468396-383.228171c-21.543665-21.034059-56.478316-21.034059-78.026074 0l-393.46635 383.228171c-21.545712 21.036106-21.545712 55.141878 0 76.179007C99.856265 596.08814 134.791939 596.08814 156.336628 575.051011z" fill="#a9b7b7"></path></g></g></svg>