<?xml version="1.0" standalone="no"?><!DOCTYPE svg PUBLIC "-//W3C//DTD SVG 1.1//EN" "http://www.w3.org/Graphics/SVG/1.1/DTD/svg11.dtd"><svg width="16" height="16" viewBox="0 0 16 16" version="1.1" xmlns="http://www.w3.org/2000/svg" xmlns:xlink="http://www.w3.org/1999/xlink"><defs><style type="text/css"><![CDATA[
@font-face { font-family: ifont; src: url("//at.alicdn.com/t/font_1442373896_4754455.eot?#iefix") format("embedded-opentype"), url("//at.alicdn.com/t/font_1442373896_4754455.woff") format("woff"), url("//at.alicdn.com/t/font_1442373896_4754455.ttf") format("truetype"), url("//at.alicdn.com/t/font_1442373896_4754455.svg#ifont") format("svg"); }

]]></style></defs><g class="transform-group"><g transform="scale(0.015625, 0.015625)"><path d="M512 1024C229.156571 1024 0 794.770286 0 511.926857 0 229.229714 229.156571 0 512 0 794.770286 0 1024 229.229714 1024 511.926857 1024 794.770286 794.770286 1024 512 1024ZM512 73.142857C269.970286 73.142857 73.069714 269.970286 73.069714 511.926857 73.069714 754.029714 269.970286 950.857143 512 950.857143 753.956571 950.857143 950.857143 754.029714 950.857143 511.926857 950.857143 269.970286 753.956571 73.142857 512 73.142857ZM714.386286 319.488C704.292571 325.851429 696.393143 337.481143 690.614857 354.377143L514.194286 831.561143 488.301714 831.561143 329.069714 354.377143C326.144 339.529143 321.097143 328.557714 314.002286 321.024 306.761143 313.709714 296.009143 310.052571 281.673143 310.052571L260.096 310.052571 260.096 291.108571 444.050286 291.108571 444.050286 310.052571 426.861714 310.052571C412.379429 310.052571 403.090286 313.197714 398.848 319.488 394.532571 325.851429 393.801143 334.262857 396.726857 344.795429L516.681143 704.146286 525.531429 704.146286 654.921143 354.377143C660.699429 339.529143 660.772571 328.557714 654.994286 321.024 649.216 313.709714 637.659429 310.052571 620.470857 310.052571L607.524571 310.052571 607.524571 291.108571 763.830857 291.108571 763.830857 310.052571 746.569143 310.052571C735.085714 310.052571 724.406857 313.197714 714.386286 319.488Z" fill="#56abe4"></path></g></g></svg>